HIERARCHY
ROOT Hip
{
	OFFSET 0.000000 0.000000 0.000000 
	CHANNELS 6 Xposition Yposition Zposition Xrotation Yrotation Zrotation
	JOINT LowerSpine
	{
		OFFSET 0.000000 8.345300 -5.129200 
		CHANNELS 3 Xrotation Yrotation Zrotation
		JOINT MiddleSpine
		{
			OFFSET 10.856900 0.000000 0.000000 
			CHANNELS 3 Xrotation Yrotation Zrotation
			JOINT Chest
			{
				OFFSET 15.298400 0.000000 0.000000 
				CHANNELS 3 Xrotation Yrotation Zrotation
				JOINT Neck
				{
					OFFSET 25.661800 -0.598600 0.000000 
					CHANNELS 3 Xrotation Yrotation Zrotation
					JOINT Head
					{
						OFFSET 8.882900 0.000000 0.000000 
						CHANNELS 3 Xrotation Yrotation Zrotation
						End Site
						{
							OFFSET 19.739901 0.000000 0.000000 
						}
					}
				}
				JOINT RClavicle
				{
					OFFSET 23.687799 0.000000 3.158400 
					CHANNELS 3 Xrotation Yrotation Zrotation
					JOINT RShoulder
					{
						OFFSET -15.594500 -3.948000 0.987000 
						CHANNELS 3 Xrotation Yrotation Zrotation
						JOINT RForearm
						{
							OFFSET -31.337000 0.000000 0.197400 
							CHANNELS 3 Xrotation Yrotation Zrotation
							JOINT RHand
							{
								OFFSET -26.402100 0.000000 0.000000 
								CHANNELS 3 Xrotation Yrotation Zrotation
								End Site
								{
									OFFSET -15.791900 -0.987000 0.000000 
								}
							}
						}
					}
				}
				JOINT LClavicle
				{
					OFFSET 23.687799 0.000000 -3.158400 
					CHANNELS 3 Xrotation Yrotation Zrotation
					JOINT LShoulder
					{
						OFFSET -15.594500 -3.948000 -0.987000 
						CHANNELS 3 Xrotation Yrotation Zrotation
						JOINT LForearm
						{
							OFFSET -31.337000 0.000000 -0.197400 
							CHANNELS 3 Xrotation Yrotation Zrotation
							JOINT LHand
							{
								OFFSET -26.402100 0.000000 0.000000 
								CHANNELS 3 Xrotation Yrotation Zrotation
								End Site
								{
									OFFSET -15.791900 -0.987000 0.000000 
								}
							}
						}
					}
				}
			}
		}
	}
	JOINT RThigh
	{
		OFFSET -8.882900 0.448100 0.000000 
		CHANNELS 3 Xrotation Yrotation Zrotation
		JOINT RShin
		{
			OFFSET 43.131599 0.000000 -0.493500 
			CHANNELS 3 Xrotation Yrotation Zrotation
			JOINT RFoot
			{
				OFFSET 0.000000 -44.725601 -0.404700 
				CHANNELS 3 Xrotation Yrotation Zrotation
				JOINT RToe
				{
					OFFSET 0.000000 -3.933200 12.195300 
					CHANNELS 3 Xrotation Yrotation Zrotation
					End Site
					{
						OFFSET 6.772500 0.000000 0.000000 
					}
				}
			}
		}
	}
	JOINT LThigh
	{
		OFFSET 8.882900 0.448100 0.000000 
		CHANNELS 3 Xrotation Yrotation Zrotation
		JOINT LShin
		{
			OFFSET 43.131599 0.000000 0.493500 
			CHANNELS 3 Xrotation Yrotation Zrotation
			JOINT LFoot
			{
				OFFSET 0.000000 -44.725601 0.404700 
				CHANNELS 3 Xrotation Yrotation Zrotation
				JOINT LToe
				{
					OFFSET 0.000000 -3.933200 -12.195300 
					CHANNELS 3 Xrotation Yrotation Zrotation
					End Site
					{
						OFFSET 6.772500 0.000000 0.000000 
					}
				}
			}
		}
	}
}
MOTION
Frames: 8
Frame Time: 0.016949
2.903138 87.584404 -11.290460 20.597780 -15.286850 7.685738 -89.999992 -90.000000 0.000000 -1.087488 -0.126626 0.420294 -3.619996 -0.451527 1.392663 0.000000 0.000000 0.000000 0.000000 0.000000 0.000000 90.002533 -0.455252 -83.881866 13.561880 11.785720 69.358803 135.154099 81.678947 -135.106705 0.000000 0.000000 0.000000 -89.998657 0.029299 -89.605507 -10.672100 -27.055531 66.075844 -54.639000 -82.846313 -55.105148 0.000000 0.000000 0.000000 81.916649 85.478767 140.387604 89.571190 41.006290 90.116524 -10.914310 3.923841 2.020634 177.895203 90.000000 0.000000 -173.657104 80.858353 43.249020 -89.615837 -37.806999 90.091476 15.257640 4.246171 -2.795659 181.008606 -90.000000 0.000000 
2.912114 87.940407 -10.407377 18.763130 -14.407390 7.331876 -89.999992 -90.000000 0.000000 -0.946064 -0.057273 0.304191 -3.151939 -0.209990 1.010185 0.000000 0.000000 0.000000 0.000000 0.000000 0.000000 89.999458 -0.396381 -84.673637 13.475560 11.146910 69.223587 145.302795 79.709953 -145.124100 0.000000 0.000000 0.000000 -89.998367 0.037030 -89.501610 -13.056590 -26.557011 65.637787 -74.665352 -83.929977 -75.001846 0.000000 0.000000 0.000000 77.552101 84.781410 147.786499 89.587212 39.891811 90.107269 -11.955990 3.981604 2.122723 178.806107 90.000000 0.000000 -174.787796 81.388161 47.239269 -89.635017 -36.348820 90.081390 14.826330 3.512115 -2.234751 181.245407 -90.000000 0.000000 
2.975389 88.360909 -9.391496 17.000940 -13.094890 7.026677 -89.999992 -90.000000 0.000000 -0.803266 0.005054 0.197756 -2.677540 0.006090 0.659288 0.000000 0.000000 0.000000 0.000000 0.000000 0.000000 89.996841 -0.325614 -85.624786 14.038640 9.877396 69.490662 153.570099 76.896187 -153.222595 0.000000 0.000000 0.000000 -89.997787 0.052590 -89.292503 -14.733890 -25.340090 66.004227 -99.029114 -84.060257 -99.235901 0.000000 0.000000 0.000000 71.056969 83.919777 157.400803 89.603706 38.707981 90.098030 -12.844440 3.835184 2.105547 179.494095 90.000000 0.000000 -176.248795 82.505760 51.619331 -89.657471 -34.575741 90.070168 14.192730 3.506780 -2.152006 181.490402 -90.000000 0.000000 
3.060865 88.729019 -8.523715 15.482490 -11.426370 6.815385 -89.999992 -90.000000 0.000000 -0.674595 0.051212 0.107583 -2.249015 0.165734 0.360871 0.000000 0.000000 0.000000 0.000000 0.000000 0.000000 89.995338 -0.249246 -86.650711 14.845300 8.089964 70.076683 159.596802 73.400421 -159.051102 0.000000 0.000000 0.000000 -89.997009 0.076554 -88.970490 -16.223749 -24.582310 65.843880 -120.636002 -83.176888 -120.712700 0.000000 0.000000 0.000000 65.774712 82.958771 165.379395 89.616493 37.764641 90.091087 -13.397220 3.149009 1.804423 179.556793 90.000000 0.000000 -178.333298 83.995430 56.202801 -89.678299 -32.864552 90.060349 13.705580 3.736151 -2.238273 181.448807 -90.000000 0.000000 
3.125141 88.983528 -7.879333 14.225390 -9.730465 6.624535 -89.999992 -90.000000 0.000000 -0.566385 0.076191 0.033472 -1.888029 0.252691 0.114521 0.000000 0.000000 0.000000 0.000000 0.000000 0.000000 89.995178 -0.177252 -87.617691 15.425440 6.300925 70.616653 163.376297 69.980232 -162.640900 0.000000 0.000000 0.000000 -89.996147 0.109579 -88.526733 -18.202761 -24.740351 64.272713 -136.519302 -81.473427 -136.457108 0.000000 0.000000 0.000000 64.019913 82.094727 169.314499 89.625412 37.093182 90.086342 -13.924760 2.405500 1.469900 179.487305 90.000000 0.000000 177.963806 85.017029 61.830421 -89.694160 -31.520361 90.053268 13.473560 3.510440 -2.068067 181.144806 -90.000000 0.000000 
3.130116 89.170631 -7.325051 13.110650 -8.230322 6.333267 -89.999992 -90.000000 0.000000 -0.474193 0.080341 -0.029201 -1.580041 0.268863 -0.094543 0.000000 0.000000 0.000000 0.000000 0.000000 0.000000 89.995934 -0.119278 -88.396446 15.414230 5.113053 70.860558 165.580597 67.235924 -164.694000 0.000000 0.000000 0.000000 -89.995430 0.151549 -87.962982 -20.897699 -25.123840 61.692829 -147.544601 -79.093422 -147.327606 0.000000 0.000000 0.000000 63.487579 81.521187 171.858398 89.633636 36.462292 90.082062 -14.508400 2.182512 1.421090 179.635300 90.000000 0.000000 174.892303 85.486488 66.524986 -89.706123 -30.483290 90.048157 13.311370 3.029802 -1.759700 180.854904 -90.000000 0.000000 
3.076492 89.320831 -6.788469 12.101240 -7.233510 6.005942 -89.999992 -90.000000 0.000000 -0.387598 0.068802 -0.085884 -1.290338 0.231923 -0.283876 0.000000 0.000000 0.000000 0.000000 0.000000 0.000000 89.996872 -0.080267 -88.920509 14.425410 4.488879 70.778717 166.877594 65.245529 -165.881302 0.000000 0.000000 0.000000 -89.995117 0.200136 -87.310402 -24.022169 -24.857220 58.982738 -154.567703 -76.430397 -154.193298 0.000000 0.000000 0.000000 62.793419 81.252403 174.485199 89.643494 35.694920 90.077049 -14.946170 2.321364 1.566479 179.833298 90.000000 0.000000 174.640503 85.778389 68.308960 -89.715370 -29.665939 90.044357 13.138880 2.739758 -1.580290 180.810593 -90.000000 0.000000 
2.990968 89.432640 -6.272388 11.171150 -6.729371 5.710903 -89.999992 -90.000000 0.000000 -0.298209 0.049194 -0.139286 -0.991114 0.167407 -0.462123 0.000000 0.000000 0.000000 0.000000 0.000000 0.000000 89.997543 -0.058920 -89.207390 12.576300 4.236989 70.199898 167.507507 64.152473 -166.450699 0.000000 0.000000 0.000000 -89.995369 0.250177 -86.638290 -27.360220 -23.790701 56.549309 -158.872894 -73.922836 -158.356400 0.000000 0.000000 0.000000 61.814419 81.186729 177.241196 89.653427 34.905979 90.072113 -15.285680 2.431035 1.674882 179.935898 90.000000 0.000000 176.554199 86.056297 67.855492 -89.722313 -29.044020 90.041580 13.071350 2.715797 -1.569457 180.904297 -90.000000 0.000000 
